<svg id="Layer_1" enable-background="new 0 0 512 512" height="512" viewBox="0 0 512 512" width="512" xmlns="http://www.w3.org/2000/svg"><g><g fill="#b8ecbc"><path d="m296 120c0 60.751-40 110-40 110s-40-49.249-40-110 40-110 40-110 40 49.249 40 110z"/><path d="m408.273 374.273c-41.421 41.421-102.273 47.727-102.273 47.727s6.306-60.851 47.727-102.273 102.273-47.727 102.273-47.727-6.306 60.851-47.727 102.273z"/><path d="m103.728 298.273c41.421 41.421 102.272 47.727 102.272 47.727s-6.306-60.851-47.727-102.273-102.273-47.727-102.273-47.727 6.306 60.851 47.728 102.273z"/><path d="m408.273 218.273c-41.421 41.421-102.273 47.727-102.273 47.727s6.306-60.851 47.727-102.273 102.273-47.727 102.273-47.727-6.306 60.851-47.727 102.273z"/></g><path d="m454.969 262.053c-2.628.272-64.881 7.171-108.312 50.603-37.994 37.994-48.031 90.39-50.13 104.676l-30.527 30.525v-127.714l44.668-44.668c14.284-2.1 66.681-12.136 104.675-50.13 43.432-43.432 50.331-105.685 50.603-108.313.311-2.996-.745-5.972-2.875-8.102-2.129-2.13-5.105-3.184-8.103-2.875-2.628.272-64.881 7.171-108.312 50.603-37.994 37.994-48.031 90.39-50.13 104.676l-30.526 30.523v-58.455c8.812-11.826 40-57.626 40-113.403 0-63.57-40.513-114.181-42.237-116.305-1.9-2.337-4.751-3.694-7.763-3.694s-5.863 1.357-7.762 3.695c-1.725 2.124-42.238 52.735-42.238 116.305 0 55.776 31.188 101.575 40 113.402v138.456l-30.526-30.526c-2.1-14.285-12.137-66.682-50.13-104.676-43.432-43.431-105.684-50.33-108.313-50.603-2.991-.312-5.972.746-8.102 2.875-2.129 2.13-3.186 5.106-2.875 8.102.272 2.629 7.171 64.881 50.603 108.313 37.994 37.993 90.39 48.03 104.675 50.13l44.668 44.67v101.857c0 5.523 4.477 10 10 10 5.522 0 10-4.477 10-10v-25.857l44.668-44.668c14.284-2.1 66.681-12.136 104.675-50.13 43.432-43.432 50.331-105.685 50.603-108.313.311-2.996-.745-5.972-2.875-8.102-2.128-2.131-5.105-3.186-8.102-2.877zm-94.17-91.255c27.017-27.017 63.514-38.205 82.877-42.474-4.271 19.368-15.46 55.863-42.475 82.877-19.531 19.531-44.017 30.79-63.403 37.143l65.273-65.273c3.905-3.905 3.905-10.237 0-14.143-3.906-3.905-10.236-3.905-14.143 0l-65.273 65.273c6.354-19.387 17.613-43.872 37.144-63.403zm-250.001 120.404c-27.017-27.017-38.205-63.515-42.474-82.877 19.368 4.271 55.863 15.459 82.877 42.473 19.531 19.532 30.79 44.019 37.143 63.404l-65.273-65.273c-3.905-3.905-10.237-3.905-14.143 0-3.905 3.905-3.905 10.237 0 14.143l65.272 65.272c-19.386-6.354-43.871-17.612-63.402-37.142zm115.202-171.202c0-40.09 18.947-75.416 30-92.611 11.056 17.201 30 52.525 30 92.611 0 29.417-10.201 56.269-20 75.275v-95.275c0-5.523-4.478-10-10-10-5.523 0-10 4.477-10 10v95.274c-9.799-19.008-20-45.859-20-75.274zm175.201 247.202c-19.531 19.531-44.017 30.79-63.403 37.143l65.273-65.273c3.905-3.905 3.905-10.237 0-14.143-3.906-3.905-10.236-3.905-14.143 0l-65.273 65.273c6.353-19.387 17.612-43.872 37.143-63.403 27.017-27.017 63.514-38.205 82.877-42.474-4.27 19.367-15.459 55.863-42.474 82.877z" fill="#5cd0b3"/></g></svg>