<?xml version="1.0"?>
<svg xmlns="http://www.w3.org/2000/svg" xmlns:xlink="http://www.w3.org/1999/xlink" xmlns:svgjs="http://svgjs.com/svgjs" version="1.1" width="512" height="512" x="0" y="0" viewBox="0 0 300 300" style="enable-background:new 0 0 512 512" xml:space="preserve" class=""><g><g xmlns="http://www.w3.org/2000/svg"><path d="m252.828 220h-12v-149.354c0-14.693-11.953-26.646-26.646-26.646h-130.463c-12.621 0-22.891 10.27-22.891 22.891v13.109c0 2.209 1.791 4 4 4h32v141.217c0 17.838 11.775 30.783 28 30.783h108.889c12.744 0 23.111-10.367 23.111-23.111v-8.889c0-2.209-1.791-4-4-4zm-184-144v-9.109c0-8.086 6.489-14.655 14.793-14.854 8.025.378 13.207 6.611 13.207 15.963v8zm72 154c0 9.562-7.471 17.457-17.01 17.973-.012 0-.025.002-.039.002-11.211-.539-18.951-9.746-18.951-22.758v-157.217c0-6.37-1.942-11.852-5.206-16h114.56c10.281 0 18.646 8.365 18.646 18.646v149.354h-88c-2.209 0-4 1.791-4 4zm108 2.889c0 8.332-6.779 15.111-15.111 15.111h-92.123c4.488-4.682 7.234-11.035 7.234-18v-2h100z" fill="#ffffff" data-original="#000000" style="" class=""/><path d="m61.312 183.516c-1.562-1.562-4.094-1.562-5.656 0l-2.828 2.828-2.828-2.828c-1.562-1.562-4.094-1.562-5.656 0s-1.562 4.094 0 5.656l2.828 2.828-2.828 2.828c-1.562 1.562-1.562 4.094 0 5.656.781.781 1.805 1.172 2.828 1.172s2.047-.391 2.828-1.172l2.828-2.828 2.828 2.828c.781.781 1.805 1.172 2.828 1.172s2.047-.391 2.828-1.172c1.562-1.562 1.562-4.094 0-5.656l-2.828-2.828 2.828-2.828c1.563-1.563 1.563-4.094 0-5.656z" fill="#ffffff" data-original="#000000" style="" class=""/><circle cx="80.828" cy="180" r="4" fill="#ffffff" data-original="#000000" style="" class=""/><circle cx="68.828" cy="136" r="4" fill="#ffffff" data-original="#000000" style="" class=""/></g></g></svg>
